<?xml version="1.0" encoding="UTF-8"?>
<svg width="1200pt" height="1200pt" version="1.1" viewBox="0 0 1200 1200" xmlns="http://www.w3.org/2000/svg">
 <g>
  <path d="m468 477.6c136.8 0 248.4 108 254.4 243.6 0 3.6016-1.1992 7.1992-1.1992 12h49.199v-9.6016c4.8008-27.602 28.801-48 57.602-48 32.398 0 58.801 26.398 58.801 58.801h48c0-58.801-48-106.8-106.8-106.8-26.398 0-49.199 9.6016-68.398 25.199-4.8008-16.801-10.801-32.398-18-48 25.199-16.801 55.199-26.398 86.398-26.398 86.398 0 156 69.602 156 156h48c0-112.8-91.199-204-204-204-39.602 0-78 12-110.4 32.398-2.3984-3.6016-4.8008-7.1992-7.1992-9.6016l118.8-118.8c19.199 14.398 42 22.801 66 22.801 28.801 0 55.199-10.801 75.602-31.199 42-42 42-109.2 0-150-15.602-15.602-34.801-25.199-55.199-28.801-3.6016-20.398-14.398-40.801-28.801-55.199-42-42-109.2-42-150 0-20.398 20.398-31.199 46.801-31.199 75.602 0 25.199 8.3984 48 24 67.199l-128.4 128.4c-39.602-19.199-85.199-30-132-30-166.8 0-303.6 135.6-303.6 303.6h48c-1.207-144 114-259.2 254.39-259.2zm331.2-148.8-22.801-16.801c-3.6016-2.3984-4.8008-3.6016-7.1992-6-22.801-22.801-22.801-60 0-82.801s60-22.801 82.801 0c12 12 18 26.398 16.801 43.199l-1.1992 25.199 25.199-1.1992c16.801 0 31.199 6 43.199 16.801 10.801 10.801 16.801 25.199 16.801 40.801s-6 30-16.801 40.801-25.199 16.801-40.801 16.801c-15.602 0-30-6-40.801-16.801-2.3984-2.3984-3.6016-3.6016-4.8008-6l-16.801-21.602-153.6 153.6c-10.801-10.801-24-21.602-36-30z"/>
  <path d="m624 733.2h48c0-112.8-91.199-204-204-204s-204 91.199-204 204h48c0-86.398 69.602-156 156-156s156 69.602 156 156z"/>
  <path d="m361.2 733.2h48c0-32.398 26.398-58.801 58.801-58.801 32.398 0 58.801 26.398 58.801 58.801h48c0-58.801-48-106.8-106.8-106.8s-106.8 48-106.8 106.8z"/>
  <path d="m1107.6 769.2h-990c-38.398 0-68.398 31.199-68.398 68.398 0 37.199 31.199 68.398 68.398 68.398h120c42 84 94.801 142.8 163.2 178.8l4.8008 2.3984h411.6l4.8008-2.3984c68.398-36 122.4-94.801 163.2-178.8h120c38.398 0 68.398-31.199 68.398-68.398 0-37.199-28.801-68.398-66-68.398zm-301.2 271.2h-387.6c-51.602-28.801-93.602-72-127.2-134.4h642c-34.797 62.398-76.797 106.8-127.2 134.4zm301.2-181.2h-990c-12 0-20.398-9.6016-20.398-20.398 0-10.801 9.6016-20.398 20.398-20.398h990c12 0 20.398 9.6016 20.398 20.398 0 10.801-9.6016 20.398-20.398 20.398z"/>
  <path d="m398.4 1123.2h429.6v48h-429.6z"/>
  <path d="m512.4 309.6c0 60 42 94.801 50.398 100.8l28.801-38.398c-3.6016-2.3984-31.199-24-31.199-62.398 0-37.199 27.602-58.801 31.199-61.199 8.3984-7.1992 49.199-40.801 49.199-99.602 0-60-42-94.801-50.398-100.8l-28.801 38.398c3.6016 2.3984 31.199 24 31.199 62.398 0 37.199-27.602 58.801-31.199 61.199-8.3984 7.1992-47.996 40.801-49.199 99.602z"/>
  <path d="m468 398.4 28.801-38.398c-3.6016-2.3984-31.199-24-31.199-62.398 0-37.199 27.602-58.801 31.199-61.199 8.3984-7.1992 49.199-40.801 49.199-99.602 0-60-42-94.801-50.398-100.8l-28.801 38.398c3.6016 2.3984 31.199 24 31.199 62.398 0 37.199-27.602 58.801-31.199 61.199-8.3984 7.1992-49.199 40.801-49.199 99.602-1.2031 60.004 40.797 94.801 50.398 100.8z"/>
 </g>
</svg>
